<svg xmlns="http://www.w3.org/2000/svg" width="120" height="100" viewBox="0 0 120 100"><g stroke="#66543e" stroke-width="1.2" stroke-linejoin="round"><path d="M6 75q48 14 102 0" fill="none"/><path d="M10 75V56h17v19Z" fill="#d6c09b"/><path d="M8 56l10 -8 11 8Z" fill="#9e7353"/><path d="M14 63v5"/><path d="M21 63v5"/><path d="M29 75V50h17v25Z" fill="#d6c09b"/><path d="M27 50l10 -8 11 8Z" fill="#9e7353"/><path d="M33 57v5"/><path d="M40 57v5"/><path d="M48 75V57h17v18Z" fill="#d6c09b"/><path d="M46 57l10 -8 11 8Z" fill="#9e7353"/><path d="M52 64v5"/><path d="M59 64v5"/><path d="M67 75V51h17v24Z" fill="#d6c09b"/><path d="M65 51l10 -8 11 8Z" fill="#9e7353"/><path d="M71 58v5"/><path d="M78 58v5"/><path d="M86 75V58h17v17Z" fill="#d6c09b"/><path d="M84 58l10 -8 11 8Z" fill="#9e7353"/><path d="M90 65v5"/><path d="M97 65v5"/><path d="M43 71V43h32v28M40 43h38M44 40a15 18 0 0 1 30 0Z" fill="#c6a47a"/><path d="M58 22v-8m-4 3h8M55 71V57q4 -6 8 0v14" fill="none"/><path d="M5 85q9 -5 18 0t18 0t18 0t18 0t18 0t18 0M8 91q9 -5 18 0t18 0t18 0t18 0t18 0" stroke="#7e9994" fill="none"/></g></svg>